<svg width="90" height="20" viewBox="0 0 90 20" fill="none" xmlns="http://www.w3.org/2000/svg">
<g id="Group 2">
<path id="Vector" d="M7.92425 0C3.55244 0 0 3.47153 0 7.74377C0 12.016 3.55244 15.4875 7.92425 15.4875C9.65404 15.4875 11.2527 14.9431 12.5564 14.0214L18.689 20L20 18.7189L13.9403 12.7829C15.1311 11.427 15.8485 9.66726 15.8485 7.74377C15.8485 3.47153 12.2961 0 7.92425 0ZM7.92425 0.911032C11.7917 0.911032 14.9162 3.96441 14.9162 7.74377C14.9162 11.5231 11.7917 14.5765 7.92425 14.5765C4.05681 14.5765 0.932265 11.5231 0.932265 7.74377C0.932265 3.96441 4.05681 0.911032 7.92425 0.911032Z" fill="white" fill-opacity="0.8"/>
<path id="Vector_2" d="M80.4745 0C80.6721 0.0362405 80.8712 0.0684544 81.0671 0.109057C83.1915 0.551326 84.5989 2.02645 84.6265 3.84183C84.6322 4.20525 84.6273 4.56899 84.6273 4.95891C84.7267 4.95891 84.8098 4.95891 84.893 4.95891C85.7743 4.95891 86.6552 4.95824 87.5366 4.95891C88.1478 4.95959 88.4755 5.19549 88.5335 5.69815C88.6386 6.60484 88.7306 7.51253 88.8292 8.41955C88.9809 9.81918 89.1338 11.2188 89.2855 12.6184C89.4177 13.8365 89.5487 15.0549 89.6805 16.273C89.7839 17.2257 89.8821 18.1783 89.9936 19.1303C90.0532 19.6394 89.6915 19.9984 89.0762 19.9987C83.0261 20.0004 76.976 20.0004 70.9258 19.9987C70.324 19.9987 69.9512 19.6444 70.0052 19.1478C70.2404 16.9901 70.4728 14.8321 70.7085 12.6745C70.953 10.4326 71.1996 8.1907 71.4454 5.94915C71.4588 5.826 71.4645 5.70185 71.4896 5.58037C71.5699 5.19347 71.8952 4.96227 72.373 4.96026C73.3091 4.95623 74.2456 4.95892 75.1816 4.95858C75.2356 4.95858 75.2895 4.95858 75.3763 4.95858C75.3763 4.79281 75.3767 4.63946 75.3763 4.48577C75.3747 3.94586 75.3585 3.40594 75.5244 2.87542C75.9884 1.39123 77.4959 0.266771 79.3296 0.0422806C79.3973 0.0338916 79.4634 0.0144291 79.5299 0C79.8447 0 80.1598 0 80.4745 0ZM88.1851 18.5495C87.745 14.4925 87.3066 10.4524 86.8678 6.40719H84.6391C84.635 6.47934 84.6289 6.54276 84.6285 6.60618C84.6273 6.96423 84.6362 7.32227 84.6245 7.67998C84.6111 8.08433 84.2375 8.38868 83.7695 8.39472C83.314 8.40042 82.9336 8.11285 82.8963 7.71689C82.8764 7.50347 82.889 7.28771 82.8882 7.07295C82.8874 6.85383 82.8882 6.6347 82.8882 6.40988H77.1167C77.1167 6.49209 77.1167 6.56222 77.1167 6.63236C77.1159 6.98369 77.1285 7.33569 77.111 7.68669C77.0907 8.10178 76.6969 8.40579 76.2248 8.39438C75.756 8.38298 75.3966 8.07762 75.3784 7.67159C75.3727 7.54173 75.3767 7.41119 75.3767 7.28099C75.3767 6.9904 75.3767 6.70014 75.3767 6.40753H73.1343C72.695 10.4557 72.257 14.4959 71.8169 18.5495H88.1851ZM82.8845 4.94885C82.8845 4.54181 82.8934 4.14619 82.8829 3.7509C82.8545 2.71502 81.9756 1.78887 80.7807 1.52546C79.5174 1.24694 78.228 1.67478 77.5434 2.57073C76.9735 3.31601 77.1475 4.13511 77.1171 4.94918L82.8845 4.94885Z" fill="white" fill-opacity="0.8"/>
</g>
</svg>
